<svg xmlns="http://www.w3.org/2000/svg" width="1600" height="900" viewBox="0 0 1600 900">
  <defs>
    <linearGradient id="bg" x1="0" y1="0" x2="1" y2="1">
      <stop offset="0%" stop-color="#2b1a1a"/>
      <stop offset="45%" stop-color="#5b3b2e"/>
      <stop offset="100%" stop-color="#141414"/>
    </linearGradient>
    <radialGradient id="glow" cx="62%" cy="38%" r="70%">
      <stop offset="0%" stop-color="#efeaf6" stop-opacity="0.55"/>
      <stop offset="45%" stop-color="#c7b7df" stop-opacity="0.18"/>
      <stop offset="100%" stop-color="#000" stop-opacity="0"/>
    </radialGradient>
    <filter id="noise">
      <feTurbulence type="fractalNoise" baseFrequency="0.9" numOctaves="2" stitchTiles="stitch"/>
      <feColorMatrix type="matrix" values="0 0 0 0 0  0 0 0 0 0  0 0 0 0 0  0 0 0 .08 0"/>
    </filter>
  </defs>

  <rect width="1600" height="900" fill="url(#bg)"/>
  <rect width="1600" height="900" fill="url(#glow)"/>

  <!-- soft shapes to mimic a photographic composition -->
  <g opacity="0.55">
    <path d="M1050 200c180 40 290 160 320 260-50 130-210 250-430 260-220 10-380-70-460-210 80-170 330-370 570-310z" fill="#bfa98f" opacity="0.18"/>
    <path d="M420 520c90-120 250-220 420-210 170 10 300 100 360 220-90 160-260 250-470 240-210-10-330-80-310-250z" fill="#c9a227" opacity="0.08"/>
  </g>

  <!-- grain -->
  <rect width="1600" height="900" filter="url(#noise)" opacity="0.65"/>
</svg>
